<svg xmlns="http://www.w3.org/2000/svg" width="482.829" height="461.329" viewBox="0 0 482.829 461.329">
  <g id="star-hand-drawn-symbol-outline" transform="translate(0 -10.75)">
    <g id="Group_130" data-name="Group 130">
      <path id="Path_62" data-name="Path 62" d="M8.538,201.486c39.093,35.828,80.379,68.967,125.332,97.159Q111.64,374.122,85.583,448.36c-3.171,9.074,2.963,15.34,10.3,16.747,3.671,2.233,8.34,2.5,13.114-.909,43.445-31.026,88.065-60.352,132-90.678,44.43,32.646,87.856,66.618,134.387,96.289,10.308,6.581,20.017-2.316,20.626-11.781a14,14,0,0,0-.025-6.865c-12.288-49.982-26.726-99.224-48.9-145.677,47.728-30.5,86.34-72.39,130.864-107.191,8.353-6.525,4.9-15.965-2.194-20.467a12.8,12.8,0,0,0-10.526-4.883H315.3c-20.043-50.4-40.5-100.633-56.782-152.418C253.669,5.108,231.466,9.45,230.831,22.98c-23.354,49.835-44.788,100.4-57.262,154.094-53.349-.338-106.676-2.564-160.03-2.725C-2.674,174.3-4.307,196.771,8.538,201.486Zm171.928,3.724a15.254,15.254,0,0,0,3.435-.386c6.21.9,12.637-1.919,14.3-9.912,9.569-45.907,26.052-89.261,45.011-131.809,14.922,42.533,31.964,84.279,48.573,126.2.051.134.133.233.193.363,1.011,6.012,5.454,11.336,13.335,11.336H430.962c-34.729,30.168-67.6,62.518-107.476,86.079a17.028,17.028,0,0,0-6.434,20.6c19.393,37.8,32.575,77.855,43.574,118.662-37.4-25.726-73.3-53.532-109.954-80.344a14.8,14.8,0,0,0-3.11-1.727c-3.781-2.641-8.752-3.22-13.858.325-35.914,24.923-72.346,49.084-108.285,73.955q20.045-59.541,37.714-119.83c1.872-6.423-.645-11.466-4.8-14.421a13.521,13.521,0,0,0-5.855-7.038C116.842,255.3,83.741,230.1,52.194,202.853,94.953,203.614,137.7,205.079,180.466,205.21Z" fill="#688bfe"/>
    </g>
  </g>
</svg>
