<svg xmlns="http://www.w3.org/2000/svg" width="507.048" height="512" viewBox="0 0 507.048 512">
  <path id="cart" d="M494.93,97.148c-9.492-10.844-23.023-16.816-38.1-16.816H92.4l-3.668-27.5C84.781,23.207,64.156,0,41.777,0H15a15,15,0,0,0,0,30H41.777c4.813,0,15,10.176,17.219,26.8l42.937,322.039a60.653,60.653,0,0,0,20.535,37.422,61.988,61.988,0,0,0,28.789,14.324,55.175,55.175,0,1,0,97.574,1.086h78.6a55.168,55.168,0,1,0,98.133,0h39.3a15,15,0,0,0,0-30H162.277c-14.656,0-28.672-12.273-30.609-26.8l-3.137-23.535H245.277s.008,0,.012,0,.008,0,.016,0h96.367s.008,0,.016,0,0,0,.008,0h83A62.271,62.271,0,0,0,485.043,298.5l21.516-161.367c1.992-14.941-2.137-29.141-11.629-39.984Zm-270,359.684a25.168,25.168,0,1,1-25.168-25.164A25.195,25.195,0,0,1,224.934,456.832Zm176.734,0A25.168,25.168,0,1,1,376.5,431.668,25.195,25.195,0,0,1,401.668,456.832ZM472.355,116.91c3.715,4.242,5.3,10.012,4.465,16.254l-9.02,67.668H365.738l6.031-90.5h85.063c6.3,0,11.813,2.336,15.523,6.578ZM259.335,321.332l-6.035-90.5h80.371l-6.035,90.5Zm-8.035-120.5-6.031-90.5H341.7l-6.031,90.5Zm-36.1-90.5,6.031,90.5H108.464L96.4,110.332Zm-102.738,120.5h110.77l6.035,90.5H124.532Zm312.234,90.5h-67l6.035-90.5H463.8l-8.492,63.7c-1.937,14.527-15.957,26.8-30.609,26.8Zm0,0" fill="#688bfe"/>
</svg>
