<svg xmlns="http://www.w3.org/2000/svg" width="511.999" height="450.016" viewBox="0 0 511.999 450.016">
  <g id="chat" transform="translate(0 -30.991)">
    <g id="Group_124" data-name="Group 124">
      <g id="Group_123" data-name="Group 123">
        <path id="Path_57" data-name="Path 57" d="M467,150.991H362v-75a45.051,45.051,0,0,0-45-45H45a45.051,45.051,0,0,0-45,45v180a45.051,45.051,0,0,0,45,45H60v45a15.014,15.014,0,0,0,23.32,12.481L150,314.019v61.972a45.051,45.051,0,0,0,45,45H342.458l86.221,57.481A15.008,15.008,0,0,0,452,465.991v-45h15a45.051,45.051,0,0,0,45-45v-180A45.05,45.05,0,0,0,467,150.991ZM156.638,273.538l-.043.028L90,317.963V285.991a15,15,0,0,0-15-15H45a15.017,15.017,0,0,1-15-15v-180a15.017,15.017,0,0,1,15-15H317a15.017,15.017,0,0,1,15,15v180a15.017,15.017,0,0,1-15,15H165A15.242,15.242,0,0,0,156.638,273.538ZM482,375.991a15.017,15.017,0,0,1-15,15H437a15,15,0,0,0-15,15v31.972L355.32,393.51a15,15,0,0,0-8.32-2.519H195a15.017,15.017,0,0,1-15-15v-75H317a45.051,45.051,0,0,0,45-45v-75H467a15.017,15.017,0,0,1,15,15Z" fill="#688bfe"/>
      </g>
    </g>
    <g id="Group_126" data-name="Group 126">
      <g id="Group_125" data-name="Group 125">
        <path id="Path_58" data-name="Path 58" d="M195,180.991H75a15,15,0,0,0,0,30H195a15,15,0,0,0,0-30Z" fill="#688bfe"/>
      </g>
    </g>
    <g id="Group_128" data-name="Group 128">
      <g id="Group_127" data-name="Group 127">
        <path id="Path_59" data-name="Path 59" d="M287,120.991H75a15,15,0,0,0,0,30H287a15,15,0,0,0,0-30Z" fill="#688bfe"/>
      </g>
    </g>
  </g>
</svg>
