<svg xmlns="http://www.w3.org/2000/svg" width="412.803" height="503.379" viewBox="0 0 412.803 503.379">
  <g id="history" transform="translate(-45.288)">
    <path id="Path_64" data-name="Path 64" d="M458.091,128.116V454.958a48.478,48.478,0,0,1-48.422,48.421H188.749a48.477,48.477,0,0,1-48.421-48.421V242.439a119.091,119.091,0,0,0,36.316.925V454.958a12.118,12.118,0,0,0,12.1,12.1h220.92a12.12,12.12,0,0,0,12.105-12.1V128.116a12.119,12.119,0,0,0-12.105-12.1H289.835a128.053,128.053,0,0,0-5.3-36.315H409.669A48.476,48.476,0,0,1,458.091,128.116ZM159.49,228.4a114.2,114.2,0,1,1,114.2-114.2A114.328,114.328,0,0,1,159.49,228.4Zm0-24.211A89.989,89.989,0,1,0,69.5,114.2,90.089,90.089,0,0,0,159.49,204.19Zm68.491-77.882a12.1,12.1,0,1,0,0-24.21H171.6V54.578a12.1,12.1,0,1,0-24.21,0V114.2a12.109,12.109,0,0,0,12.1,12.1ZM367.7,224.456H236.557a12.1,12.1,0,1,0,0,24.21H367.7a12.1,12.1,0,1,0,0-24.21Zm.213,73.429H236.77a12.105,12.105,0,0,0,0,24.21H367.91a12.105,12.105,0,0,0,0-24.21Zm0,76.468H236.77a12.1,12.1,0,1,0,0,24.209H367.91a12.1,12.1,0,0,0,0-24.209Z" fill="#688bfe"/>
  </g>
</svg>
