<svg xmlns="http://www.w3.org/2000/svg" width="489.4" height="427.3" viewBox="0 0 489.4 427.3">
  <g id="shop" transform="translate(0 -31.05)">
    <g id="Group_129" data-name="Group 129">
      <path id="Path_60" data-name="Path 60" d="M347.7,263.75H281.2a33.033,33.033,0,0,0-33,33v51a33.033,33.033,0,0,0,33,33h66.5a33.033,33.033,0,0,0,33-33v-51A33.033,33.033,0,0,0,347.7,263.75Zm9,84a9.026,9.026,0,0,1-9,9H281.2a9.026,9.026,0,0,1-9-9v-51a9.026,9.026,0,0,1,9-9h66.5a9.026,9.026,0,0,1,9,9Z" fill="#688bfe"/>
      <path id="Path_61" data-name="Path 61" d="M489.4,171.05a11.139,11.139,0,0,0-1.6-5.9L415,37.15a12.064,12.064,0,0,0-10.4-6.1H84.7a11.859,11.859,0,0,0-10.4,6.1l-72.7,128a12.131,12.131,0,0,0-1.6,5.9,70.2,70.2,0,0,0,42,64.2v211.1a12.035,12.035,0,0,0,12,12H435.3a12.035,12.035,0,0,0,12-12V236.75a5.283,5.283,0,0,0-.1-1.3A70.394,70.394,0,0,0,489.4,171.05ZM91.7,55.15H397.6l56.9,100.1H34.9Zm256.6,124a46.121,46.121,0,0,1-90.8,0Zm-116.3,0a46.18,46.18,0,0,1-90.9,0Zm-207.2,0h90.9a46.18,46.18,0,0,1-90.9,0Zm176.8,255.2h-69V304.85a17.092,17.092,0,0,1,17.1-17.1h34.9a17.092,17.092,0,0,1,17.1,17.1v129.5Zm221.7,0H225.6V304.85a41.163,41.163,0,0,0-41.1-41.1H149.6a41.163,41.163,0,0,0-41.1,41.1v129.6H66V241.15c1.4.1,2.8.1,4.2.1a70.11,70.11,0,0,0,58.2-31,70.133,70.133,0,0,0,116.4,0,69.945,69.945,0,0,0,116.2,0,70.11,70.11,0,0,0,58.2,31c1.4,0,2.7-.1,4.1-.1v193.2Zm-4.1-217.1a46.1,46.1,0,0,1-45.4-38h90.9A46.378,46.378,0,0,1,419.2,217.25Z" fill="#688bfe"/>
    </g>
  </g>
</svg>
