<svg xmlns="http://www.w3.org/2000/svg" width="487.6" height="418.5" viewBox="0 0 487.6 418.5">
  <g id="wallet" transform="translate(0 -34.55)">
    <path id="Path_63" data-name="Path 63" d="M460.3,216.55H448.7v-69.7a51.661,51.661,0,0,0-51.6-51.6H386.4l.1-25.9a34.825,34.825,0,0,0-34.8-34.8H42.3A42.32,42.32,0,0,0,0,76.25v342a34.825,34.825,0,0,0,34.8,34.8H397.2a51.661,51.661,0,0,0,51.6-51.6v-69.8h11.6a27.228,27.228,0,0,0,27.2-27.2v-60.7A27.379,27.379,0,0,0,460.3,216.55Zm-418-158H351.7a10.8,10.8,0,0,1,10.8,10.7l-.1,26H42.3a18.35,18.35,0,0,1,0-36.7Zm382.4,342.8a27.655,27.655,0,0,1-27.6,27.6H34.7a10.819,10.819,0,0,1-10.8-10.8V115.05a42.117,42.117,0,0,0,18.4,4.2H397.1a27.655,27.655,0,0,1,27.6,27.6v69.7H342.8a27.228,27.228,0,0,0-27.2,27.2v60.7a27.228,27.228,0,0,0,27.2,27.2h81.9v69.7Zm38.8-96.9a3.159,3.159,0,0,1-3.2,3.2H342.9a3.159,3.159,0,0,1-3.2-3.2v-60.7a3.222,3.222,0,0,1,3.2-3.2H460.3a3.222,3.222,0,0,1,3.2,3.2v60.7Z" fill="#688bfe"/>
  </g>
</svg>
